<svg id="Layer_1" data-name="Layer 1" xmlns="http://www.w3.org/2000/svg" viewBox="0 0 32 32"><defs><style>.cls-1{fill:#7a7979;}.cls-2{fill:#3a3a3a;}.cls-3{fill:#ccc;}.cls-3,.cls-4{stroke:#3a3a3a;stroke-miterlimit:10;stroke-width:0.5px;}.cls-4{fill:#2ecc71;}</style></defs><g id="Shelf"><rect class="cls-1" x="0.5" y="0.55" width="31" height="31.15" rx="4.35"/><path class="cls-2" d="M27.15,1.05A3.86,3.86,0,0,1,31,4.9V27.36a3.86,3.86,0,0,1-3.85,3.85H4.85A3.86,3.86,0,0,1,1,27.36V4.9A3.86,3.86,0,0,1,4.85,1.05h22.3m0-1H4.85A4.85,4.85,0,0,0,0,4.9V27.36a4.85,4.85,0,0,0,4.85,4.85h22.3A4.85,4.85,0,0,0,32,27.36V4.9A4.85,4.85,0,0,0,27.15.05Z"/><circle class="cls-2" cx="21.84" cy="3.18" r="0.82"/><circle class="cls-2" cx="24.66" cy="3.18" r="0.82"/><circle class="cls-2" cx="27.38" cy="3.18" r="0.82"/><g id="Icon"><path class="cls-3" d="M24.48,20.85a.88.88,0,0,0-.81.49l0,.05a8.42,8.42,0,0,1-7.31,4.13A8.54,8.54,0,1,1,24.6,14.9h1.81A10.29,10.29,0,1,0,16.33,27.27a10.11,10.11,0,0,0,8.9-5.16l0-.08a.79.79,0,0,0,.1-.37A.85.85,0,0,0,24.48,20.85Z"/><path class="cls-4" d="M25.68,16.55a.92.92,0,0,1-.43-.11l-2.18-1.3a.85.85,0,1,1,.87-1.45l1.45.86.83-1.4a.85.85,0,1,1,1.45.87L26.4,16.14a.82.82,0,0,1-.52.39A.65.65,0,0,1,25.68,16.55Z"/><path class="cls-4" d="M19.52,20.11a.86.86,0,0,1-.46-.14L15.58,17.7a.83.83,0,0,1-.38-.7V11.92a.84.84,0,0,1,1.68,0v4.62l3.1,2a.84.84,0,0,1,.24,1.17A.85.85,0,0,1,19.52,20.11Z"/></g></g></svg>